<!-- by TradingView --><svg width="18" height="18" xmlns="http://www.w3.org/2000/svg"><path fill="#2B364E" d="M0 0h18v18H0z"/><path d="M9.003 3.377v3.004c0 .041-.011.077-.062.08-.97.07-1.583.552-2.144 1.32-.045.06-.044.061-.109.025L4.004 6.355l5-2.978z" fill="url(#paint0_linear)"/><path d="M14 11.615c-.022-.01-.061-.017-.076-.025l-2.675-1.386c-.041-.023-.045-.044-.025-.085.397-.814.366-1.605-.025-2.421-.018-.04-.015-.059.025-.081L14 6.347v5.268z" fill="url(#paint1_linear)"/><path d="M4.004 6.352c-.017-.008.026.01 0 0 .872.426 1.834.876 2.708 1.3.05.025.057.044.032.09-.458.822-.456 1.644 0 2.466.038.066.039.066-.036.102-.875.43-1.75.86-2.627 1.289-.022.01-.052.012-.077.017V6.352z" fill="url(#paint2_linear)"/><path d="M9 3.377c1.838 1.026 3.148 1.947 4.986 2.972L11.29 7.665c-.058.035-.058.034-.097-.024-.496-.738-1.194-1.027-2.059-1.134a.595.595 0 00-.077-.005C9.01 6.502 9 6.481 9 6.43V3.377z" fill="url(#paint3_linear)"/><path d="M9.004 14.623l-5-3.01s1.87-1.055 2.658-1.495c.047-.027.07-.016.098.024.492.681 1.069 1.172 1.912 1.31.086.014.174.02.26.024.05.002.07.016.07.067l.002 3.08z" fill="#434748"/><path d="M14 11.658l-5 2.964v-3.104c0-.043.012-.059.056-.063.97-.086 1.69-.46 2.254-1.286.05-.073.049-.074.121-.03.983.584 1.586.934 2.569 1.519z" fill="url(#paint5_linear)"/><path d="M10.953 7.248c.36.376.594.855.67 1.37.19 1.305-.66 2.529-1.98 2.853-1.464.36-2.95-.541-3.254-1.973-.284-1.34.575-2.637 1.856-2.98.962-.256 1.816-.051 2.563.586l.145.144z" fill="#fff"/><path d="M10.747 10.752c.082-.286.108-.575.09-.868a2.19 2.19 0 00-.297-1.014 2.128 2.128 0 00-.906-.813c-.1-.05-.11-.025-.051-.15.134-.282.37-.457.66-.569.202-.074.415-.115.63-.123.03.001.059.014.08.036.36.376.594.855.67 1.37.19 1.305-.66 2.53-1.98 2.854-1.464.36-2.95-.542-3.254-1.974-.284-1.34.575-2.637 1.856-2.979.962-.257 1.816-.052 2.563.585l.084.073.034.035c-.074-.009-.191-.04-.264-.046a3.166 3.166 0 00-1.342.136c-.535.177-.984.55-1.255 1.043-.04.071-.043.072-.12.045a.655.655 0 01-.26-.168 1.374 1.374 0 01-.315-.52c-.058-.17-.101-.345-.151-.518-.004-.014-.007-.028-.02-.042l-.02.12c-.007.04-.012.08-.016.12-.047.446-.022.887.133 1.314a1.93 1.93 0 001.082 1.148c.07.03.07.031.032.094-.195.333-.502.5-.88.557a2.382 2.382 0 01-.533.003l.05.02c.865.298 1.816.164 2.532-.594.18-.192.337-.405.469-.633.034-.06.037-.06.092-.02.234.171.374.405.47.668.09.242.125.493.133.748l.004.062z" fill="url(#paint6_linear)"/><defs><linearGradient id="paint0_linear" x1="9.007" y1="3.727" x2="5.826" y2="7.134" gradientUnits="userSpaceOnUse"><stop stop-color="#9D9E9E"/><stop offset="1" stop-color="#D8DEDE"/></linearGradient><linearGradient id="paint1_linear" x1="13.996" y1="8.981" x2="11.189" y2="8.981" gradientUnits="userSpaceOnUse"><stop stop-color="#ABB1B1"/><stop offset="1" stop-color="#ACB1B1"/></linearGradient><linearGradient id="paint2_linear" x1="5.591" y1="7.187" x2="4.004" y2="11.439" gradientUnits="userSpaceOnUse"><stop stop-color="#959999"/><stop offset="1" stop-color="#979B9A"/></linearGradient><linearGradient id="paint3_linear" x1="9.002" y1="3.957" x2="13.167" y2="6.548" gradientUnits="userSpaceOnUse"><stop stop-color="#6E7376"/><stop offset="1" stop-color="#909599"/></linearGradient><linearGradient id="paint5_linear" x1="12.279" y1="10.79" x2="9.097" y2="14.444" gradientUnits="userSpaceOnUse"><stop stop-color="#7F8283"/><stop offset="1" stop-color="#828282"/></linearGradient><linearGradient id="paint6_linear" x1="8.992" y1="6.414" x2="8.992" y2="13.376" gradientUnits="userSpaceOnUse"><stop offset=".156" stop-color="#F2DE8D"/><stop offset="1" stop-color="#D77857"/></linearGradient></defs></svg>