<!-- by TradingView --><svg width="18" height="18" xmlns="http://www.w3.org/2000/svg"><path fill="#F49E00" d="M0 0h18v18H0z"/><path d="M9.978 6.927L9.095 5.13c.184-.414.276-.65.276-.704 0-.194-.124-.336-.37-.427h2.703c-.333.155-.63.544-.889 1.165l-.837 1.762zm-1.326 2.79L8.102 11h2.426c1.099 0 1.834-.338 2.204-.765L11.574 12H4.938c.715-.143 1.445-1.035 2.173-2.68.245-.505.47-.972.676-1.4l.865 1.796zM4 10c.537-.33 2.399-3.48 2.399-4.468 0-.233-.136-.319-.407-.526h2.11l1.935 3.227 1.667-3.227h2.185c-.926.253-2.648 4.274-2.648 4.8 0 .103.018.168.055.194H9.37L7.722 6.583 6.092 10H4z" fill="#fff"/><path d="M9 13.438l.288.885h.93l-.753.547.288.885L9 15.208l-.753.547.288-.885-.754-.547h.931L9 13.437z" fill="#fff"/></svg>