<!-- by TradingView --><svg width="18" height="18" xmlns="http://www.w3.org/2000/svg"><path fill="#1C1E7D" d="M0 0h18v18H0z"/><path d="M14.125 9.212c-.055 1.31-.513 2.303-1.199 3.113a5.194 5.194 0 01-5.493 1.574 5.182 5.182 0 01-3.558-4.465C3.59 6.136 6.597 3.38 9.857 3.93a5.149 5.149 0 012.745 1.395c.01.005.01.052-.005.067-.258.263-.52.523-.782.78-.016.016-.067.016-.088 0-1.183-1.088-2.562-1.407-4.065-.862A3.765 3.765 0 005.1 8.623a3.934 3.934 0 002.125 3.864c2.258 1.14 5.014-.162 5.63-2.41 0-.021-.041-.076-.062-.076h-3.7c-.03 0-.087-.059-.092-.09A16.97 16.97 0 019 9.1c0-.03.057-.098.087-.098.824 0 4.03.01 4.806 0 .152 0 .222.057.232.211z" fill="#fff"/></svg>