<!-- by TradingView --><svg width="18" height="18" xmlns="http://www.w3.org/2000/svg"><path fill="url(#paint0_linear)" d="M0 0h18v18H0z"/><path d="M8.868 7.282c.183.07.36.033.504 0 .108.356.285.68.462.825-.108.9-.462 1.217-.821 1.217-.499 0-.75-1.04-.75-1.217a1.235 1.235 0 00.605-.83v.005zM8.3 10.44c.07.291.284 1.008.75 1.008.322 0 .676-.399.751-.97-.252-.146-.359-.469-.466-.97-.14.033-.36.07-.504 0-.177.464-.322.755-.537.932H8.3zm-2.864 1.115c.182.286.536.755.933.571.107-.037.14-.323.107-.57-.284-.184-.467-.507-.681-1.008a.379.379 0 01-.284 0c.07.539.07.824-.075 1.007zm-1.502-.97c.145.787.182.863.145.97.246.464.498.68.82.647.108 0 .038-.291-.107-.577a2.661 2.661 0 01-.681-1.007.321.321 0 00-.177-.032zm-.966 0c.36 1.51 1.04 1.434 1.003 1.358a1.366 1.366 0 00-.429-.463c-.322-.323-.568-1.002-.568-.9l-.006.006zm4.36.97c.183.647.682.647.86.571.251-.037.358-.253.396-.646-.322-.215-.43-.684-.499-1.002a.826.826 0 01-.429 0c-.037.501-.075.894-.322 1.077H7.33zM4.257 10.44c.144.361.574 1.04.895 1.04.145 0 .215-.248.145-1.002-.214-.146-.391-.431-.504-.905a.475.475 0 01-.322 0c-.032.399-.07.69-.214.862v.005zm-1.105 0c.107.291.354.9.676 1.008.144.07.144-.146-.033-.97 0 0-.252-.216-.429-.9H3.22c-.032.324-.07.792-.07.862zm2.858 0c.038.146.392.862.826.97.494.108.537-.539.537-.932-.258-.146-.43-.431-.542-.9a.678.678 0 01-.461 0c-.075.469-.183.722-.36.862zm-.321-.107c.214 0 .391-.324.466-.932-.182-.178-.397-.507-.429-1.256a.442.442 0 01-.29 0c-.107.68-.214 1.072-.428 1.293 0 .21.252.895.68.895zm-2.22-.9c.182.716.359.9.503.9.322 0 .252-.54.285-.932-.108-.146-.322-.507-.322-1.261h-.177c-.215 1.115-.215 1.147-.29 1.293zm-.714-1.255c-.07-.038-.43 1.47.107 2.117.075.075.075-.824.075-.824-.145-.324-.075-1.261-.182-1.293zm4.29 1.255c.038.108.253.9.827.9.354 0 .643-.4.713-.97a2.03 2.03 0 01-.499-1.223.825.825 0 01-.429 0c-.214.716-.36 1.115-.611 1.293zm-2.933-1.4c.037.646.182 1.292.466 1.292.322 0 .467-.716.574-1.33-.107-.07-.252-.286-.252-.755a.214.214 0 01-.284 0c-.038.076-.215.685-.504.792zm-.89 1.324c.182 0 .359-1.325.359-1.325-.075-.107-.145-.323-.107-.786-.038.037-.108 0-.145 0-.084.276-.203.54-.354.786-.075.394 0 1.325.252 1.325H3.22zM5.94 8.031c.037.431.252 1.293.68 1.293.462 0 .677-.646.784-1.293-.252-.14-.354-.398-.43-.786-.176.037-.32.037-.466-.043-.14.36-.429.754-.568.83zm.322-.97c-.108-.145-.253-.393-.183-.937h-.247c-.154.38-.386.723-.68 1.008 0 .075.037.83.396.83.284 0 .494-.324.714-.9zm-1.754-.894h-.145c0 .038-.461.862-.681 1.002-.07.361-.07.792.145.83.214 0 .359-.183.643-.9-.07-.183-.145-.43.038-.932zm-1.035.038c-.537.356-.826 1.649-.682 1.686.038.038.467-.57.43-.937-.033-.248.359-.787.252-.754v.005zm5.079.862c-.145-.145-.322-.399-.397-.943a.732.732 0 01-.392 0c-.107.323-.284.754-.643 1.008.07.36.246.792.574.83.606 0 .75-.502.858-.9v.005zm-4.865-.97c-.36.539-.36 1.002-.214 1.002.177 0 .675-.9.788-1.077-.038-.183.354-.539.215-.577-.253 0-.72.615-.794.647l.005.005zm8.796 4.45c-.107.038-.214.038-.284 0-.145.463-.36.83-.681 1.007-.038.254-.038.54.107.571.392.146.789-.285.928-.57-.107-.184-.107-.47-.07-1.008zm1.432 0c-.147.384-.38.728-.68 1.007-.183.324-.253.571-.108.571.322 0 .568-.183.82-.646-.037-.108 0-.183.145-.97-.075.076-.145.076-.177.038zm.569.932c-.14.145-.284.215-.392.463-.037.081.644.146.998-1.363-.07-.107-.284.577-.606.9zm-4.114-.932a.866.866 0 01-.43 0 1.927 1.927 0 01-.498 1.007c.07.356.145.571.397.647.177.037.676.037.858-.577a1.68 1.68 0 01-.322-1.077h-.005zm3.218-1.007a.331.331 0 01-.322 0c-.107.393-.284.754-.498.9-.076.753 0 1.007.139 1.007.29 0 .75-.684.896-1.045-.177-.14-.215-.431-.215-.862zm1.287.075h-.14c-.072.329-.219.637-.428.9-.183.786-.215 1.002-.038.97.284-.108.537-.723.681-1.008-.075-.108-.075-.576-.075-.862zm-3.18-.075a.694.694 0 01-.467 0c-.107.43-.284.754-.536.9 0 .355.037 1.039.536.931.397-.075.789-.792.826-.97-.214-.107-.284-.355-.36-.861zm1.357-.108c-.177-.216-.284-.647-.43-1.293a.395.395 0 01-.284 0c-.037.754-.252 1.115-.429 1.26.07.572.252.933.467.933.354 0 .644-.685.676-.9zm1.255-1.293c-.08 0-.107.038-.183 0 0 .754-.177 1.115-.321 1.26.037.356-.038.933.29.933.139 0 .321-.216.498-.9-.07-.146-.107-.178-.284-1.293zm.75 1.293s0 .9.07.83c.537-.577.215-2.155.108-2.118-.07.065 0 1.002-.183 1.293l.006-.005zm-4.58-1.293c-.177.038-.36.038-.429 0a2.24 2.24 0 01-.499 1.217c.108.54.322 1.008.72.97.498 0 .782-.786.82-.894-.322-.178-.505-.577-.606-1.293h-.006zm2.972-.894a.348.348 0 01-.322.037c0 .431-.145.68-.252.787.107.646.252 1.33.574 1.33.284 0 .466-.689.466-1.292-.252-.183-.466-.792-.466-.862zm1.609.786a4.552 4.552 0 01-.322-.786.107.107 0 01-.145 0c.032.388-.037.646-.107.754 0 0 .177 1.325.354 1.325.182.032.252-.9.214-1.293h.006zm-3.503-.786a.735.735 0 01-.466.037c-.038.356-.177.647-.392.787.107.684.247 1.33.783 1.293.392 0 .644-.862.681-1.293-.214-.108-.466-.501-.606-.824zm.89.684c.36 0 .398-.722.398-.83-.252-.183-.467-.576-.682-.97-.075.038-.144.038-.252 0 .075.507-.037.793-.177.938.252.571.467.894.714.862zm1.143-.867c.252.716.392.9.574.9.214-.038.214-.432.145-.83a4.526 4.526 0 01-.681-1.008h-.145c.214.539.145.792.107.938zm1.218-.108c-.033.323.359.97.397.937.107-.043-.108-1.336-.682-1.691-.037-.033.322.5.285.754zm-4.538.97c.354-.033.536-.394.569-.825-.285-.215-.467-.646-.569-.97a.71.71 0 01-.397 0c-.032.502-.214.825-.391.933.107.398.246.9.788.862zm3.325-2.479c-.144 0 .247.394.215.577.107.178.569 1.072.783 1.072.145 0 .145-.431-.252-1.007-.032-.027-.574-.641-.75-.641h.004zm-7.938.108s.07-.178-.042-.215c-.177.005-.676.69-.89.797-.038.075-.323.9.031.97.322.037.682-.577.896-1.008-.107-.107-.07-.323 0-.538l.005-.006zm1.68-.032c0-.043 0-.216-.183-.216-.215 0-.499.68-.82.787-.076.393 0 .937.321.97.467.037.751-.54.896-.97-.183-.108-.215-.356-.215-.571zm5.079.57c.214.394.536 1.04.89 1.008.36-.075.07-.9.037-.97-.214-.107-.713-.791-.895-.791-.108 0-.032.183-.032.215.07.216.07.431 0 .539zm-1.9 0c.146.394.398 1.04.897.97.359-.032.429-.506.321-.97-.29-.107-.643-.829-.82-.786-.183 0-.183.173-.183.216-.032.215-.07.463-.214.57zm-1.501-.786c-.392 0-.252.647-.681.825.037.323.145.97.643.97.574 0 .682-.793.682-.97-.285-.14-.285-.825-.644-.825z" fill="#fff"/><defs><linearGradient id="paint0_linear" x1="3.349" y1="3.122" x2="21.904" y2="24.434" gradientUnits="userSpaceOnUse"><stop stop-color="#1A1E21"/><stop offset="1" stop-color="#06060A"/></linearGradient></defs></svg>