<!-- by TradingView --><svg width="18" height="18" viewBox="0 0 18 18" xmlns="http://www.w3.org/2000/svg"><path fill="#F0F3FA" d="M0 0h18v18H0z"/><path fill-rule="evenodd" d="M9.52 4.32a.74.74 0 0 0 .1-.1l3.3 2.04c0 .05.02.1.04.14l-1.4.86a.6.6 0 0 0-.5-.17L9.52 4.32Zm3.64 2.34-1.44.9a.67.67 0 0 1-.14.6l1.7 2.96v-4.4a.53.53 0 0 1-.12-.06Zm.48.06v4.56c.2.08.36.29.36.53 0 .31-.24.56-.54.56a.53.53 0 0 1-.43-.2l-3.27 1.92.02.16c0 .41-.33.75-.72.75a.74.74 0 0 1-.72-.85l-3.37-1.99a.53.53 0 0 1-.43.21.55.55 0 0 1-.54-.56c0-.24.15-.45.36-.53V6.72A.56.56 0 0 1 4 6.19c0-.31.24-.57.54-.57.2 0 .37.11.47.28l3.33-2.06v-.09c0-.41.32-.75.72-.75.4 0 .72.34.72.75 0 .05 0 .1-.02.15l3.23 2c.1-.17.27-.28.47-.28.3 0 .54.26.54.57 0 .24-.15.45-.36.53Zm-.7 4.9.02-.03-3.41-2.04a.71.71 0 0 1-.31.18v1.17c.3.08.54.38.54.72h3.17Zm-3.3 2.2L12.8 12H9.68c-.1.17-.25.3-.44.35v1.17c.16.05.3.15.4.3Zm-.5.1c.13.04.24.17.24.33 0 .19-.15.34-.32.34a.33.33 0 0 1-.33-.34c0-.16.1-.29.25-.32h.15Zm-.27-.4v-1.17a.73.73 0 0 1-.44-.35H5.2l3.24 1.86c.1-.16.25-.29.43-.34Zm0-2.62a.75.75 0 0 0-.54.72H5.05v-.03l3.47-2.08c.1.1.22.18.35.22v1.17Zm4.08.32L9.72 9.3a.77.77 0 0 0 0-.57l.93-.6a.6.6 0 0 0 .66.2l1.64 2.89Zm-2.42-3.37-.96.63a.72.72 0 0 0-.33-.2v-3.8l1.52 2.73a.65.65 0 0 0-.23.64ZM8.87 4.48a.7.7 0 0 1-.09-.04L7.24 7.21a.65.65 0 0 1 .23.64l1.03.67c.1-.12.22-.2.37-.25v-3.8ZM4.72 6.72v4.4l1.7-2.97a.65.65 0 0 1-.14-.6l-1.44-.89a.53.53 0 0 1-.12.06Zm.32-.32 1.4.86a.6.6 0 0 1 .5-.17l1.58-2.84a.75.75 0 0 1-.06-.08L5.08 6.26c0 .05-.02.1-.04.14Zm3.33 2.85-3.32 1.97 1.64-2.89.18.03c.2 0 .37-.1.48-.24l1.01.67a.78.78 0 0 0 .01.46Zm.69-5.16c.17 0 .32-.15.32-.34a.33.33 0 0 0-.32-.34.33.33 0 0 0-.33.34c0 .19.15.34.33.34Zm0 5.25c.17 0 .32-.15.32-.34a.33.33 0 0 0-.32-.34.33.33 0 0 0-.33.34c0 .19.15.34.33.34ZM7.14 7.72c0 .16-.12.29-.27.29a.28.28 0 0 1-.27-.29c0-.16.12-.28.27-.28.15 0 .27.12.27.28Zm3.72 0c0 .16.12.29.27.29.15 0 .27-.13.27-.29a.28.28 0 0 0-.27-.28.28.28 0 0 0-.27.28Zm-6.32 4.34c.14 0 .24-.1.24-.25 0-.14-.1-.25-.24-.25a.25.25 0 0 0-.24.25c0 .14.1.25.24.25Zm.24-5.87c0 .14-.1.25-.24.25a.25.25 0 0 1-.24-.25c0-.14.1-.25.24-.25.14 0 .24.1.24.25Zm4.28 5.77c.17 0 .32-.15.32-.34a.33.33 0 0 0-.32-.33.33.33 0 0 0-.33.34c0 .18.15.33.33.33Zm4.4.1a.25.25 0 0 1-.24-.25c0-.14.1-.25.24-.25.13 0 .24.11.24.25s-.1.25-.24.25Zm-.24-5.87c0 .14.1.25.24.25.13 0 .24-.11.24-.25s-.1-.25-.24-.25a.25.25 0 0 0-.24.25Z" fill="#077BC4"/></svg>